{"asset":{"generator":"glTF-Transform v4.2.1","version":"2.0","extras":{"author":"Karol Miklas (https://sketchfab.com/karolmiklas)","license":"CC-BY-4.0 (http://creativecommons.org/licenses/by/4.0/)","source":"https://sketchfab.com/3d-models/free-1975-porsche-911-930-turbo-8568d9d14a994b9cae59499f0dbed21e","title":"FREE 1975 Porsche 911 (930) Turbo"}},"accessors":[{"type":"SCALAR","componentType":5123,"count":97848,"bufferView":0,"byteOffset":0},{"type":"SCALAR","componentType":5123,"count":23040,"bufferView":0,"byteOffset":195696},{"type":"SCALAR","componentType":5123,"count":23142,"bufferView":0,"byteOffset":241776},{"type":"SCALAR","componentType":5123,"count":9882,"bufferView":0,"byteOffset":288060},{"type":"SCALAR","componentType":5123,"count":36567,"bufferView":0,"byteOffset":307824},{"type":"SCALAR","componentType":5123,"count":132276,"bufferView":0,"byteOffset":380960},{"type":"SCALAR","componentType":5123,"count":131139,"bufferView":0,"byteOffset":645512},{"type":"SCALAR","componentType":5123,"count":14886,"bufferView":0,"byteOffset":907792},{"type":"SCALAR","componentType":5123,"count":2928,"bufferView":0,"byteOffset":937564},{"type":"SCALAR","componentType":5123,"count":6540,"bufferView":0,"byteOffset":943420},{"type":"SCALAR","componentType":5123,"count":6,"bufferView":0,"byteOffset":956500},{"type":"SCALAR","componentType":5123,"count":243276,"bufferView":0,"byteOffset":956512},{"type":"SCALAR","componentType":5123,"count":642,"bufferView":0,"byteOffset":1443064},{"type":"SCALAR","componentType":5123,"count":1608,"bufferView":0,"byteOffset":1444348},{"type":"VEC3","componentType":5126,"count":22532,"bufferView":1,"byteOffset":0},{"type":"VEC3","componentType":5126,"count":22532,"max":[2.462402820587158,1.8109146356582642,3.1839168071746826],"min":[-0.13957414031028748,-0.3223726153373718,-0.322400838136673],"bufferView":1,"byteOffset":12},{"type":"VEC4","componentType":5126,"count":22532,"bufferView":1,"byteOffset":24},{"type":"VEC2","componentType":5126,"count":22532,"bufferView":1,"byteOffset":40},{"type":"VEC3","componentType":5126,"count":4768,"bufferView":2,"byteOffset":0},{"type":"VEC3","componentType":5126,"count":4768,"max":[2.497257709503174,1.9189350605010986,3.285959005355835],"min":[-0.1744312345981598,-0.44044068455696106,-0.4404693841934204],"bufferView":2,"byteOffset":12},{"type":"VEC4","componentType":5126,"count":4768,"bufferView":2,"byteOffset":24},{"type":"VEC2","componentType":5126,"count":4768,"bufferView":2,"byteOffset":40},{"type":"VEC3","componentType":5126,"count":4939,"bufferView":3,"byteOffset":0},{"type":"VEC3","componentType":5126,"count":4939,"max":[6.148767948150635,3.528167963027954,24.147645950317383],"min":[-6.532322883605957,-0.20433883368968964,-0.5000020861625671],"bufferView":3,"byteOffset":12},{"type":"VEC4","componentType":5126,"count":4939,"bufferView":3,"byteOffset":24},{"type":"VEC2","componentType":5126,"count":4939,"bufferView":3,"byteOffset":40},{"type":"VEC3","componentType":5126,"count":1970,"bufferView":4,"byteOffset":0},{"type":"VEC3","componentType":5126,"count":1970,"max":[0.9635698795318604,1.8209043741226196,1.2513070106506348],"min":[-0.9635698795318604,1.2640687227249146,-1.6932646036148071],"bufferView":4,"byteOffset":12},{"type":"VEC2","componentType":5126,"count":1970,"bufferView":4,"byteOffset":24},{"type":"VEC3","componentType":5126,"count":9287,"bufferView":5,"byteOffset":0},{"type":"VEC3","componentType":5126,"count":9287,"max":[1.3071296215057373,2.41542911529541,3.1658990383148193],"min":[-1.3071295022964478,0.39367783069610596,-2.5906763076782227],"bufferView":5,"byteOffset":12},{"type":"VEC2","componentType":5126,"count":9287,"bufferView":5,"byteOffset":24},{"type":"VEC3","componentType":5126,"count":24836,"bufferView":6,"byteOffset":0},{"type":"VEC3","componentType":5126,"count":24836,"max":[1.3260356187820435,1.883938193321228,3.24088716506958],"min":[-1.3260356187820435,0.31043168902397156,-2.617774724960327],"bufferView":6,"byteOffset":12},{"type":"VEC2","componentType":5126,"count":24836,"bufferView":6,"byteOffset":24},{"type":"VEC3","componentType":5126,"count":24605,"bufferView":7,"byteOffset":0},{"type":"VEC3","componentType":5126,"count":24605,"max":[1.3264003992080688,1.8843343257904053,3.241283416748047],"min":[-1.3264003992080688,0.3104197084903717,-2.618170976638794],"bufferView":7,"byteOffset":12},{"type":"VEC4","componentType":5126,"count":24605,"bufferView":7,"byteOffset":24},{"type":"VEC2","componentType":5126,"count":24605,"bufferView":7,"byteOffset":40},{"type":"VEC3","componentType":5126,"count":4162,"bufferView":8,"byteOffset":0},{"type":"VEC3","componentType":5126,"count":4162,"max":[22.00604248046875,2.971189498901367,42.99359893798828],"min":[-22.494720458984375,-24.793174743652344,-56.96558380126953],"bufferView":8,"byteOffset":12},{"type":"VEC3","componentType":5126,"count":582,"bufferView":9,"byteOffset":0},{"type":"VEC3","componentType":5126,"count":582,"max":[1.0327986478805542,1.134440302848816,3.170485019683838],"min":[-1.0327986478805542,0.42382892966270447,2.746367931365967],"bufferView":9,"byteOffset":12},{"type":"VEC4","componentType":5126,"count":582,"bufferView":9,"byteOffset":24},{"type":"VEC2","componentType":5126,"count":582,"bufferView":9,"byteOffset":40},{"type":"VEC3","componentType":5126,"count":1865,"bufferView":10,"byteOffset":0},{"type":"VEC3","componentType":5126,"count":1865,"max":[0.035860005766153336,0.09397672116756439,0.015107202343642712],"min":[-0.033441945910453796,-0.11740497499704361,-0.018046101555228233],"bufferView":10,"byteOffset":12},{"type":"VEC2","componentType":5126,"count":1865,"bufferView":10,"byteOffset":24},{"type":"VEC3","componentType":5126,"count":4,"bufferView":11,"byteOffset":0},{"type":"VEC3","componentType":5126,"count":4,"max":[1,0,1],"min":[-1,0,-1],"bufferView":11,"byteOffset":12},{"type":"VEC2","componentType":5126,"count":4,"bufferView":11,"byteOffset":24},{"type":"VEC3","componentType":5126,"count":55608,"bufferView":12,"byteOffset":0},{"type":"VEC3","componentType":5126,"count":55608,"max":[1.3265630006790161,1.4223791360855103,5.722912788391113],"min":[-1.3265591859817505,-1.795030117034912,-0.07743151485919952],"bufferView":12,"byteOffset":12},{"type":"VEC2","componentType":5126,"count":55608,"bufferView":12,"byteOffset":24},{"type":"VEC3","componentType":5126,"count":199,"bufferView":13,"byteOffset":0},{"type":"VEC3","componentType":5126,"count":199,"max":[0.9154804944992065,0.3418918251991272,5.523331642150879],"min":[-0.9175274968147278,-1.6955152750015259,-0.00837667565792799],"bufferView":13,"byteOffset":12},{"type":"VEC2","componentType":5126,"count":199,"bufferView":13,"byteOffset":24},{"type":"VEC3","componentType":5126,"count":300,"bufferView":14,"byteOffset":0},{"type":"VEC3","componentType":5126,"count":300,"max":[0.31589213013648987,0.08815964311361313,5.571290493011475],"min":[-0.3158875107765198,-1.672361969947815,-0.008239325135946274],"bufferView":14,"byteOffset":12},{"type":"VEC4","componentType":5126,"count":300,"bufferView":14,"byteOffset":24},{"type":"VEC2","componentType":5126,"count":300,"bufferView":14,"byteOffset":40}],"bufferViews":[{"buffer":0,"byteOffset":0,"byteLength":1447564,"target":34963},{"buffer":0,"byteOffset":1447564,"byteLength":1081536,"byteStride":48,"target":34962},{"buffer":0,"byteOffset":2529100,"byteLength":228864,"byteStride":48,"target":34962},{"buffer":0,"byteOffset":2757964,"byteLength":237072,"byteStride":48,"target":34962},{"buffer":0,"byteOffset":2995036,"byteLength":63040,"byteStride":32,"target":34962},{"buffer":0,"byteOffset":3058076,"byteLength":297184,"byteStride":32,"target":34962},{"buffer":0,"byteOffset":3355260,"byteLength":794752,"byteStride":32,"target":34962},{"buffer":0,"byteOffset":4150012,"byteLength":1181040,"byteStride":48,"target":34962},{"buffer":0,"byteOffset":5331052,"byteLength":99888,"byteStride":24,"target":34962},{"buffer":0,"byteOffset":5430940,"byteLength":27936,"byteStride":48,"target":34962},{"buffer":0,"byteOffset":5458876,"byteLength":59680,"byteStride":32,"target":34962},{"buffer":0,"byteOffset":5518556,"byteLength":128,"byteStride":32,"target":34962},{"buffer":0,"byteOffset":5518684,"byteLength":1779456,"byteStride":32,"target":34962},{"buffer":0,"byteOffset":7298140,"byteLength":6368,"byteStride":32,"target":34962},{"buffer":0,"byteOffset":7304508,"byteLength":14400,"byteStride":48,"target":34962}],"samplers":[{"magFilter":9729,"minFilter":9987,"wrapS":10497,"wrapT":10497}],"textures":[{"sampler":0,"extensions":{"EXT_texture_webp":{"source":0}}},{"sampler":0,"extensions":{"EXT_texture_webp":{"source":1}}},{"sampler":0,"extensions":{"EXT_texture_webp":{"source":2}}},{"sampler":0,"extensions":{"EXT_texture_webp":{"source":3}}},{"sampler":0,"extensions":{"EXT_texture_webp":{"source":4}}},{"sampler":0,"extensions":{"EXT_texture_webp":{"source":5}}},{"sampler":0,"extensions":{"EXT_texture_webp":{"source":6}}},{"sampler":0,"extensions":{"EXT_texture_webp":{"source":8}}},{"sampler":0,"extensions":{"EXT_texture_webp":{"source":7}}},{"sampler":0,"extensions":{"EXT_texture_webp":{"source":9}}},{"sampler":0,"extensions":{"EXT_texture_webp":{"source":11}}},{"sampler":0,"extensions":{"EXT_texture_webp":{"source":10}}},{"sampler":0,"extensions":{"EXT_texture_webp":{"source":12}}},{"sampler":0,"extensions":{"EXT_texture_webp":{"source":14}}},{"sampler":0,"extensions":{"EXT_texture_webp":{"source":13}}},{"sampler":0,"extensions":{"EXT_texture_webp":{"source":15}}},{"sampler":0,"extensions":{"EXT_texture_webp":{"source":16}}},{"sampler":0,"extensions":{"EXT_texture_webp":{"source":17}}},{"sampler":0,"extensions":{"EXT_texture_webp":{"source":18}}},{"sampler":0,"extensions":{"EXT_texture_webp":{"source":19}}},{"sampler":0,"extensions":{"EXT_texture_webp":{"source":23}}},{"sampler":0,"extensions":{"EXT_texture_webp":{"source":22}}},{"sampler":0,"extensions":{"EXT_texture_webp":{"source":21}}},{"sampler":0,"extensions":{"EXT_texture_webp":{"source":24}}},{"sampler":0,"extensions":{"EXT_texture_webp":{"source":25}}},{"sampler":0,"extensions":{"EXT_texture_webp":{"source":20}}}],"images":[{"mimeType":"image/webp","uri":"textures/material_0_baseColor.webp"},{"mimeType":"image/webp","uri":"textures/930_plastics_baseColor.webp"},{"mimeType":"image/webp","uri":"textures/930_plastics_metallicRoughness.webp"},{"mimeType":"image/webp","uri":"textures/930_stickers_baseColor.webp"},{"mimeType":"image/webp","uri":"textures/plate_baseColor.webp"},{"mimeType":"image/webp","uri":"textures/plate_normal.webp"},{"mimeType":"image/webp","uri":"textures/930_rim_baseColor.webp"},{"mimeType":"image/webp","uri":"textures/930_rim_metallicRoughness.webp"},{"mimeType":"image/webp","uri":"textures/930_rim_normal.webp"},{"mimeType":"image/webp","uri":"textures/930_tire_baseColor.webp"},{"mimeType":"image/webp","uri":"textures/930_tire_metallicRoughness.webp"},{"mimeType":"image/webp","uri":"textures/930_tire_normal.webp"},{"mimeType":"image/webp","uri":"textures/930_lights_baseColor.webp"},{"mimeType":"image/webp","uri":"textures/930_lights_metallicRoughness.webp"},{"mimeType":"image/webp","uri":"textures/930_lights_normal.webp"},{"mimeType":"image/webp","uri":"textures/glass_baseColor.webp"},{"mimeType":"image/webp","uri":"textures/glass_metallicRoughness.webp"},{"mimeType":"image/webp","uri":"textures/930_chromes_baseColor.webp"},{"mimeType":"image/webp","uri":"textures/930_chromes_metallicRoughness.webp"},{"mimeType":"image/webp","uri":"textures/paint_metallicRoughness.webp"},{"mimeType":"image/webp","uri":"textures/paint_clearcoat.webp"},{"mimeType":"image/webp","uri":"textures/paint_clearcoat_roughness.webp"},{"mimeType":"image/webp","uri":"textures/paint_clearcoat_normal.webp"},{"mimeType":"image/webp","uri":"textures/coat_baseColor.webp"},{"mimeType":"image/webp","uri":"textures/930_wunderbaum_baseColor.webp"},{"mimeType":"image/webp","uri":"textures/930_wunderbaum_metallicRoughness.webp"}],"buffers":[{"uri":"scene.bin","byteLength":7318908}],"materials":[{"name":"material_0","alphaMode":"BLEND","doubleSided":true,"pbrMetallicRoughness":{"baseColorFactor":[0.0009042423066990846,0.0009042423066990846,0.0009042423066990846,1],"metallicFactor":0,"baseColorTexture":{"index":0}},"extensions":{"KHR_materials_specular":{"specularFactor":0}}},{"name":"930_plastics","doubleSided":true,"pbrMetallicRoughness":{"baseColorFactor":[0.6811449330131292,0.6811449330131292,0.6811449330131292,1],"metallicFactor":0.5159021574260289,"baseColorTexture":{"index":1},"metallicRoughnessTexture":{"index":2}},"extensions":{"KHR_materials_specular":{"specularFactor":0.10293749626960633}}},{"name":"930_stickers","alphaMode":"BLEND","doubleSided":true,"pbrMetallicRoughness":{"baseColorFactor":[0.475963555442059,0.475963555442059,0.475963555442059,0.99],"roughnessFactor":0.4516428627887322,"metallicFactor":0.8225334257519654,"baseColorTexture":{"index":3}},"extensions":{"KHR_materials_specular":{"specularFactor":0.8225334257519654}}},{"name":"plate","doubleSided":true,"pbrMetallicRoughness":{"baseColorFactor":[0.1658747241121427,0.1658747241121427,0.1658747241121427,1],"roughnessFactor":0.1419588415,"metallicFactor":0.263910061,"baseColorTexture":{"index":4}},"normalTexture":{"index":5,"scale":0.32},"extensions":{"KHR_materials_specular":{"specularFactor":0.2212271341}}},{"name":"930_rim","doubleSided":true,"pbrMetallicRoughness":{"metallicFactor":0.9188599431922078,"baseColorTexture":{"index":6},"metallicRoughnessTexture":{"index":8}},"normalTexture":{"index":7},"occlusionTexture":{"index":8},"extensions":{"KHR_materials_specular":{"specularFactor":0.894478916507174}}},{"name":"930_tire","doubleSided":true,"pbrMetallicRoughness":{"baseColorFactor":[0.3361195726854301,0.3361195726854301,0.3361195726854301,1],"roughnessFactor":0.4881239017687224,"metallicFactor":0.317879053195435,"baseColorTexture":{"index":9},"metallicRoughnessTexture":{"index":11}},"normalTexture":{"index":10},"occlusionTexture":{"index":11,"strength":0.5504954268},"extensions":{"KHR_materials_specular":{"specularFactor":0.29355836054210827}}},{"name":"930_lights","alphaMode":"BLEND","doubleSided":true,"pbrMetallicRoughness":{"baseColorFactor":[1,1,1,0.7374110014653218],"roughnessFactor":0,"baseColorTexture":{"index":12},"metallicRoughnessTexture":{"index":14}},"normalTexture":{"index":13},"extensions":{"KHR_materials_specular":{"specularFactor":0.059428752544769654}}},{"name":"glass","alphaMode":"BLEND","pbrMetallicRoughness":{"baseColorFactor":[0.27276273603881457,0.27276273603881457,0.27276273603881457,0.8042929062619704],"baseColorTexture":{"index":15},"metallicRoughnessTexture":{"index":16}},"extensions":{"KHR_materials_specular":{"specularFactor":0.11508351571538346}}},{"name":"930_chromes","doubleSided":true,"pbrMetallicRoughness":{"baseColorFactor":[0.20843593625546455,0.20843593625546455,0.20843593625546455,1],"baseColorTexture":{"index":17},"metallicRoughnessTexture":{"index":18}},"extensions":{"KHR_materials_specular":{"specularFactor":0}}},{"name":"paint","doubleSided":true,"pbrMetallicRoughness":{"baseColorFactor":[0.0015640516060149295,0.029439000325920124,0.01466470989185036,1],"roughnessFactor":0.4551720601971431,"metallicFactor":0.947085847751117,"metallicRoughnessTexture":{"index":19}},"occlusionTexture":{"index":19},"extensions":{"KHR_materials_clearcoat":{"clearcoatFactor":0.8065929878,"clearcoatRoughnessFactor":1,"clearcoatTexture":{"index":25},"clearcoatRoughnessTexture":{"index":22},"clearcoatNormalTexture":{"index":21}},"KHR_materials_specular":{"specularFactor":0.364191586107691}}},{"name":"coat","alphaMode":"BLEND","doubleSided":true,"pbrMetallicRoughness":{"baseColorFactor":[0.278857992710073,0.278857992710073,0.278857992710073,0.27276273603881457],"baseColorTexture":{"index":20},"metallicRoughnessTexture":{"index":22}},"normalTexture":{"index":21},"extensions":{"KHR_materials_specular":{"specularFactor":0.35809632943643255}}},{"name":"black","pbrMetallicRoughness":{"baseColorFactor":[0.0014208305970986254,0.0014088751875643345,0.0014088751875643345,1]},"extensions":{"KHR_materials_specular":{"specularFactor":0}}},{"name":"930_lights_refraction","alphaMode":"BLEND","doubleSided":true,"pbrMetallicRoughness":{"baseColorFactor":[0,0,0,0.25],"roughnessFactor":0.22667645574545964,"metallicFactor":0.792132559935307},"normalTexture":{"index":13},"extensions":{"KHR_materials_specular":{"specularFactor":0.22059628258212793},"KHR_materials_transmission":{"transmissionFactor":1}}},{"name":"930_wunderbaum","doubleSided":true,"pbrMetallicRoughness":{"baseColorFactor":[0.5,0.5,0.5,1],"metallicFactor":0,"baseColorTexture":{"index":23},"metallicRoughnessTexture":{"index":24}},"extensions":{"KHR_materials_specular":{"specularFactor":0.13547385829548425}}}],"meshes":[{"name":"Object_3","primitives":[{"attributes":{"NORMAL":14,"POSITION":15,"TANGENT":16,"TEXCOORD_0":17},"mode":4,"material":4,"indices":0}]},{"name":"Object_4","primitives":[{"attributes":{"NORMAL":18,"POSITION":19,"TANGENT":20,"TEXCOORD_0":21},"mode":4,"material":5,"indices":1}]},{"name":"Object_10","primitives":[{"attributes":{"NORMAL":22,"POSITION":23,"TANGENT":24,"TEXCOORD_0":25},"mode":4,"material":6,"indices":2}]},{"name":"Object_13","primitives":[{"attributes":{"NORMAL":26,"POSITION":27,"TEXCOORD_0":28},"mode":4,"material":7,"indices":3}]},{"name":"Object_14","primitives":[{"attributes":{"NORMAL":29,"POSITION":30,"TEXCOORD_0":31},"mode":4,"material":8,"indices":4}]},{"name":"Object_15","primitives":[{"attributes":{"NORMAL":32,"POSITION":33,"TEXCOORD_0":34},"mode":4,"material":9,"indices":5}]},{"name":"Object_16","primitives":[{"attributes":{"NORMAL":35,"POSITION":36,"TANGENT":37,"TEXCOORD_0":38},"mode":4,"material":10,"indices":6}]},{"name":"Object_28","primitives":[{"attributes":{"NORMAL":39,"POSITION":40},"mode":4,"material":11,"indices":7}]},{"name":"Object_51","primitives":[{"attributes":{"NORMAL":41,"POSITION":42,"TANGENT":43,"TEXCOORD_0":44},"mode":4,"material":12,"indices":8}]},{"name":"Object_65","primitives":[{"attributes":{"NORMAL":45,"POSITION":46,"TEXCOORD_0":47},"mode":4,"material":13,"indices":9}]},{"name":"Object_74","primitives":[{"attributes":{"NORMAL":48,"POSITION":49,"TEXCOORD_0":50},"mode":4,"material":0,"indices":10}]},{"name":"Object_0","primitives":[{"attributes":{"NORMAL":51,"POSITION":52,"TEXCOORD_0":53},"mode":4,"material":1,"indices":11}]},{"name":"Object_1","primitives":[{"attributes":{"NORMAL":54,"POSITION":55,"TEXCOORD_0":56},"mode":4,"material":2,"indices":12}]},{"name":"Object_2","primitives":[{"attributes":{"NORMAL":57,"POSITION":58,"TANGENT":59,"TEXCOORD_0":60},"mode":4,"material":3,"indices":13}]}],"nodes":[{"name":"Object_4","translation":[0,0.37994042695306796,2.5363210462735992],"rotation":[-1.339325163551894e-23,0.9881759979592617,0.15332383068868813,4.0457053218629897e-7],"scale":[0.8124501109123236,0.7798848740317829,0.8124501109123236],"mesh":11},{"name":"Object_5","translation":[0,0.37994042695306796,2.5363210462735992],"rotation":[-1.339325163551894e-23,0.9881759979592617,0.15332383068868813,4.0457053218629897e-7],"scale":[0.8124501109123236,0.7798848740317829,0.8124501109123236],"mesh":12},{"name":"Object_6","translation":[0,0.37994042695306796,2.5363210462735992],"rotation":[-1.339325163551894e-23,0.9881759979592617,0.15332383068868813,4.0457053218629897e-7],"scale":[0.8124501109123236,0.7798848740317829,0.8124501109123236],"mesh":13},{"name":"Object_8","translation":[-0.9435957978052087,0.45269547032617297,-0.9818882088049392],"rotation":[0.23718619172081915,0,0,0.9714642095604834],"scale":[0.812450110912323,0.812450110912323,0.812450110912323],"mesh":0},{"name":"Object_9","translation":[-0.9435957978052087,0.45269547032617297,-0.9818882088049392],"rotation":[0.23718619172081915,0,0,0.9714642095604834],"scale":[0.812450110912323,0.812450110912323,0.812450110912323],"mesh":1},{"name":"Object_20","translation":[0.5702633376393358,0.41801242792292115,-2.0568986503976703],"rotation":[0.021260380233381896,-0.10721596072428849,0.0026957236047408786,0.9940047620975196],"scale":[0.19713462902805112,0.19713461692160114,0.19713466534740123],"mesh":2},{"name":"Object_26","scale":[0.812450110912323,0.812450110912323,0.812450110912323],"mesh":3},{"name":"Object_28","scale":[0.812450110912323,0.812450110912323,0.812450110912323],"mesh":4},{"name":"Object_30","scale":[0.812450110912323,0.812450110912323,0.812450110912323],"mesh":5},{"name":"Object_32","scale":[0.812450110912323,0.812450110912323,0.812450110912323],"mesh":6},{"name":"Object_55","translation":[0.01142243563601042,1.3547290986723866,0.5301428042540408],"scale":[0.046748154994169955,0.046748154994169955,0.046748154994169955],"mesh":7},{"name":"Object_95","scale":[0.812450110912323,0.812450110912323,0.812450110912323],"mesh":8},{"name":"Object_122","translation":[-0.0019914679064088614,1.284796141448055,0.5422732250898328],"scale":[0.812450110912323,0.812450110912323,0.812450110912323],"mesh":9},{"name":"Object_140","translation":[0,0.11775037204788763,0.22460476954727682],"scale":[1.5582641899335243,1.5582641899335243,3.1165283798670487],"mesh":10}],"scenes":[{"name":"Sketchfab_Scene","nodes":[0,1,2,3,4,5,6,7,8,9,10,11,12,13]}],"scene":0,"extensionsUsed":["EXT_texture_webp","KHR_materials_clearcoat","KHR_materials_specular","KHR_materials_transmission"],"extensionsRequired":["EXT_texture_webp"]}